<svg aria-hidden="true" style="position: absolute; width: 0; height: 0; overflow: hidden;" version="1.1" xmlns="http://www.w3.org/2000/svg" xmlns:xlink="http://www.w3.org/1999/xlink">
<defs>
    <symbol id="icon-dash" viewBox="0 0 32 32">
        <path d="M9.604 24.010l8.003-8.003-8.003-8.003 1.601-3.201 11.205 11.204-11.204 11.204-1.601-3.201z"></path>
    </symbol>
    <symbol id="icon-burger" viewBox="0 0 52 32">
        <path stroke-linejoin="miter" stroke-linecap="round" stroke-miterlimit="4" stroke-width="4" d="M2 2.001h48.004M2 16.002h48.004M2 30.004h48.004"></path>
    </symbol>
    <symbol id="icon-close" viewBox="0 0 32 32">
        <path d="M23.888 6.707l-7.885 7.885-7.885-7.885c-0.177-0.162-0.414-0.262-0.674-0.262-0.551 0-0.998 0.447-0.998 0.998 0 0.26 0.099 0.497 0.262 0.675l-0.001-0.001 7.881 7.885-7.883 7.883c-0.181 0.181-0.293 0.43-0.293 0.706 0 0.551 0.447 0.998 0.998 0.998 0.275 0 0.525-0.111 0.705-0.292v0l7.887-7.883 7.885 7.885c0.177 0.162 0.414 0.262 0.674 0.262 0.551 0 0.998-0.447 0.998-0.998 0-0.26-0.099-0.497-0.262-0.675l0.001 0.001-7.885-7.885 7.885-7.887c0.181-0.181 0.293-0.43 0.293-0.706 0-0.551-0.447-0.998-0.998-0.998-0.275 0-0.525 0.112-0.705 0.292v0 0.002z"></path>
    </symbol>
</defs>
</svg>
